<?xml version="1.0" encoding="utf-8"?>
<!-- Generator: Adobe Illustrator 24.3.0, SVG Export Plug-In . SVG Version: 6.00 Build 0)  -->
<svg version="1.1" id="Layer_1" xmlns="http://www.w3.org/2000/svg" xmlns:xlink="http://www.w3.org/1999/xlink" x="0px" y="0px"
	 width="140px" height="50px" viewBox="0 0 140 50" style="enable-background:new 0 0 140 50;" xml:space="preserve">
<style type="text/css">
	.st0{fill:#95C121;}
	.st1{fill:#FFCB00;}
	.st2{fill:#008237;}
	.st3{fill:#656564;}
	.st4{fill:#008137;}
</style>
<g>
	<path class="st0" d="M121.5,30h-0.8c-5.7-4.8-9.1-7.7-11.4-9.8c-1.8-1.6-3.1-2.8-5.2-5h-0.1c0.1,1.4,0.1,2.3,0.1,3.2v11.2v0.1h-3.2
		H98v-0.1V17.5V2.3h0.8c5.9,5,9.4,8,11.7,10.2c1.6,1.5,3.1,2.9,4.9,4.7h0.1c0-1.8,0-2.8,0-3.9V2.6V2.6h3.2h2.8v0.1V14V30z"/>
	<path class="st1" d="M140,22.5c0,4.5-3.8,7.6-9.1,7.6c-1.9,0-4.1-0.3-5.4-0.9c0-2,0.1-2.7,0.2-5.7h0.1c0.5,0.2,0.9,0.4,1.4,0.6
		c0.8,0.3,1.8,0.5,3.1,0.5c1.7,0,2.9-0.8,2.9-2.3c0-0.9-0.7-1.8-1.8-2.7c-1.1-0.9-2-1.7-2.7-2.4c-1.5-1.5-3.1-3.6-3.1-6.6
		c0-4.1,2.7-8,9.3-8c1.2,0,2.9,0.2,3.9,0.5c-0.1,2.1-0.1,2.7-0.2,5.7h-0.1c-0.3-0.1-0.9-0.3-1.4-0.4c-0.5-0.1-1-0.2-1.7-0.2
		c-1.8,0-3.2,0.9-3.2,2.4c0,0.9,0.4,1.5,1,2.1c0.6,0.7,1.8,1.6,3.2,3C138.6,17.4,140,19.4,140,22.5L140,22.5z"/>
	<path class="st2" d="M90.3,17.5l-6.6-15l-3,6.3c1.2,3.4,4.2,11.8,4.2,11.8l-9.8,0l-2.4,5.2h14.1c0.8,2,1.4,3.5,1.5,3.8v0.1h3.9h3.3
		v-0.1C95.5,29.3,94.8,27.8,90.3,17.5z"/>
	<path class="st3" d="M49.8,15.6c0,5.2-2.2,9.2-6.1,11.8c-2.4,1.6-5.6,2.4-9.2,2.4c-1.7,0-3.4,0-4.5-0.1c-0.7,0-1.8-0.1-2.5-0.2v0
		v-12V14V3V2.7c0.7-0.1,1.6-0.2,3.2-0.2c1.7-0.1,3-0.1,4.3-0.1c4.1,0,7.2,0.8,9.4,2.2C48.4,7.2,49.8,11.6,49.8,15.6L49.8,15.6z
		 M43.1,15.7c0-2.5-0.8-4.7-2.6-6.1c-1.2-0.9-2.8-1.5-4.9-1.5c-0.7,0-1.3,0.1-1.8,0.1v15.5c0,0.1,0,0.1,0.1,0.1
		c0.5,0.1,1.1,0.1,1.6,0.1c1.6,0,3.1-0.5,4.4-1.4C41.8,21.2,43.1,19,43.1,15.7L43.1,15.7z"/>
	<path class="st3" d="M63.5,30.2h-0.8L54.9,14c-4.6-9.6-5.3-11.1-5.4-11.4V2.6h3.6h3.7v0.1c0.1,0.2,0.8,1.8,3.6,8
		c1.4,3.1,2,4.7,2.8,6.9h0.1c0.8-2.3,1.4-3.9,2.8-6.9c2.8-6.2,3.5-7.8,3.6-8.1V2.6h3.7h3.1v0.1c-0.1,0.2-0.8,1.8-5.4,11.4L63.5,30.2
		z"/>
	<path class="st3" d="M8.2,25.8c-0.8,2-1.5,3.5-1.6,3.8v0.1H3.4H0v-0.1c0.1-0.2,0.8-1.8,5.4-12.1l6.8-15.4h0.9l6.7,15.4
		c4.5,10.3,5.2,11.8,5.3,12.1v0.1h-3.3h-3.9v-0.1c-0.1-0.2-0.7-1.8-1.5-3.8H8.2z M14.5,20.6L14.5,20.6c-1.4-3.6-1.9-5.2-2.2-6.1h0
		c-0.2,0.9-0.8,2.5-2.2,6v0.1H14.5z"/>
	<g id="PAYS_1_">
		<g>
			<path class="st4" d="M69.1,47.9c-0.7,0-1.3-0.1-1.9-0.3c-0.5-0.2-1-0.5-1.4-0.9c-0.4-0.4-0.7-0.9-0.9-1.5c-0.2-0.6-0.3-1.3-0.3-2
				c0-0.8,0.1-1.5,0.4-2c0.2-0.6,0.6-1.1,1-1.5c0.4-0.4,0.9-0.7,1.4-0.9c0.5-0.2,1.1-0.3,1.8-0.3c0.4,0,0.7,0,1,0.1
				c0.3,0.1,0.6,0.1,0.8,0.2c0.2,0.1,0.4,0.1,0.6,0.2c0.2,0.1,0.3,0.1,0.3,0.2l-0.5,1.4c-0.2-0.1-0.5-0.3-0.9-0.4
				c-0.4-0.1-0.8-0.2-1.3-0.2c-0.4,0-0.8,0.1-1.1,0.2c-0.3,0.1-0.6,0.3-0.9,0.6c-0.3,0.3-0.4,0.6-0.6,1c-0.1,0.4-0.2,0.9-0.2,1.4
				c0,0.5,0.1,0.9,0.2,1.3c0.1,0.4,0.3,0.8,0.5,1.1c0.2,0.3,0.5,0.5,0.9,0.7c0.4,0.2,0.8,0.2,1.3,0.2c0.6,0,1.1-0.1,1.4-0.2
				c0.4-0.1,0.7-0.2,0.9-0.3l0.5,1.4c-0.1,0.1-0.3,0.1-0.4,0.2c-0.2,0.1-0.4,0.1-0.6,0.2c-0.2,0.1-0.5,0.1-0.8,0.2
				C69.8,47.9,69.5,47.9,69.1,47.9z"/>
			<path class="st4" d="M79.9,47.7c-0.1-0.4-0.3-0.7-0.4-1.1c-0.1-0.4-0.3-0.7-0.4-1.1h-3.9c-0.1,0.4-0.3,0.7-0.4,1.1
				c-0.1,0.4-0.3,0.7-0.4,1.1h-1.7c0.3-1,0.7-1.9,1-2.7c0.3-0.8,0.6-1.6,0.9-2.4c0.3-0.7,0.6-1.5,0.9-2.1c0.3-0.7,0.6-1.3,0.9-2H78
				c0.3,0.7,0.6,1.3,0.9,2c0.3,0.7,0.6,1.4,0.9,2.1c0.3,0.7,0.6,1.5,0.9,2.4c0.3,0.8,0.6,1.7,1,2.7H79.9z M77.2,40.3
				c-0.2,0.5-0.4,1-0.7,1.7c-0.3,0.7-0.5,1.4-0.8,2.2h3c-0.3-0.8-0.6-1.5-0.8-2.2C77.6,41.3,77.4,40.7,77.2,40.3z"/>
			<path class="st4" d="M84.9,38.5c0.2,0.3,0.4,0.7,0.7,1.2c0.2,0.5,0.5,1,0.7,1.5c0.2,0.5,0.5,1.1,0.7,1.6c0.2,0.6,0.5,1.1,0.7,1.5
				c0.2-0.5,0.4-1,0.7-1.5c0.2-0.6,0.5-1.1,0.7-1.6c0.2-0.5,0.5-1,0.7-1.5c0.2-0.5,0.5-0.9,0.7-1.2h1.5c0.1,0.7,0.2,1.4,0.2,2.1
				c0.1,0.8,0.1,1.5,0.2,2.3c0.1,0.8,0.1,1.6,0.2,2.4c0,0.8,0.1,1.6,0.1,2.3H91c0-1.1-0.1-2.2-0.1-3.3c0-1.1-0.1-2.2-0.2-3.3
				c-0.1,0.2-0.2,0.4-0.3,0.7c-0.1,0.3-0.3,0.6-0.4,0.9c-0.2,0.3-0.3,0.7-0.5,1c-0.2,0.4-0.3,0.7-0.5,1c-0.1,0.3-0.3,0.6-0.4,0.9
				c-0.1,0.3-0.2,0.5-0.3,0.7H87c-0.1-0.2-0.2-0.5-0.3-0.7c-0.1-0.3-0.3-0.6-0.4-0.9c-0.1-0.3-0.3-0.7-0.5-1c-0.2-0.4-0.3-0.7-0.5-1
				c-0.2-0.3-0.3-0.6-0.4-0.9c-0.1-0.3-0.2-0.5-0.3-0.7c-0.1,1.1-0.2,2.2-0.2,3.3c0,1.1-0.1,2.2-0.1,3.3h-1.6c0-0.8,0.1-1.5,0.1-2.4
				c0-0.8,0.1-1.6,0.2-2.4c0.1-0.8,0.1-1.6,0.2-2.3c0.1-0.8,0.1-1.4,0.2-2.1H84.9z"/>
			<path class="st4" d="M94.6,47.7v-9.2h5.9v1.4h-4.2v2.3h3.8v1.4h-3.8v2.7h4.6v1.4H94.6z"/>
			<path class="st4" d="M104.9,38.4c1.3,0,2.3,0.2,3,0.7c0.7,0.5,1.1,1.2,1.1,2.2c0,1.2-0.6,2.1-1.8,2.5c0.2,0.2,0.4,0.5,0.6,0.7
				c0.2,0.3,0.4,0.6,0.7,0.9c0.2,0.3,0.4,0.7,0.6,1c0.2,0.4,0.4,0.7,0.5,1.1h-1.9c-0.2-0.3-0.3-0.6-0.5-1c-0.2-0.3-0.4-0.6-0.6-0.9
				c-0.2-0.3-0.4-0.6-0.6-0.9c-0.2-0.3-0.4-0.5-0.5-0.7c-0.1,0-0.2,0-0.3,0c-0.1,0-0.2,0-0.3,0H104v3.5h-1.7v-9.1
				c0.4-0.1,0.8-0.1,1.3-0.2C104.1,38.4,104.5,38.4,104.9,38.4z M105,39.9c-0.4,0-0.7,0-1,0v3h0.7c0.4,0,0.8,0,1.1-0.1
				c0.3,0,0.6-0.1,0.8-0.2c0.2-0.1,0.4-0.3,0.5-0.5c0.1-0.2,0.2-0.4,0.2-0.7c0-0.3-0.1-0.5-0.2-0.7c-0.1-0.2-0.3-0.3-0.5-0.5
				c-0.2-0.1-0.4-0.2-0.7-0.2C105.7,39.9,105.4,39.9,105,39.9z"/>
			<path class="st4" d="M119.3,43.1c0,0.8-0.1,1.5-0.4,2.1c-0.2,0.6-0.6,1.1-1,1.5c-0.4,0.4-0.9,0.7-1.4,0.9
				c-0.5,0.2-1.1,0.3-1.7,0.3c-0.6,0-1.2-0.1-1.7-0.3c-0.5-0.2-1-0.5-1.4-0.9c-0.4-0.4-0.7-0.9-1-1.5c-0.2-0.6-0.4-1.3-0.4-2.1
				c0-0.8,0.1-1.5,0.4-2.1c0.2-0.6,0.6-1.1,1-1.5c0.4-0.4,0.9-0.7,1.4-0.9c0.5-0.2,1.1-0.3,1.7-0.3c0.6,0,1.2,0.1,1.7,0.3
				c0.5,0.2,1,0.5,1.4,0.9c0.4,0.4,0.7,0.9,1,1.5C119.2,41.6,119.3,42.3,119.3,43.1z M112.1,43.1c0,0.5,0.1,1,0.2,1.4
				c0.1,0.4,0.3,0.8,0.5,1c0.2,0.3,0.5,0.5,0.9,0.7c0.3,0.2,0.7,0.2,1.1,0.2c0.4,0,0.8-0.1,1.1-0.2c0.3-0.2,0.6-0.4,0.9-0.7
				c0.2-0.3,0.4-0.6,0.5-1c0.1-0.4,0.2-0.9,0.2-1.4c0-0.5-0.1-1-0.2-1.4c-0.1-0.4-0.3-0.8-0.5-1c-0.2-0.3-0.5-0.5-0.9-0.7
				c-0.3-0.2-0.7-0.2-1.1-0.2c-0.4,0-0.8,0.1-1.1,0.2c-0.3,0.2-0.6,0.4-0.9,0.7c-0.2,0.3-0.4,0.6-0.5,1
				C112.2,42.1,112.1,42.6,112.1,43.1z"/>
			<path class="st4" d="M124.7,47.9c-0.6,0-1.2-0.1-1.6-0.3c-0.5-0.2-0.8-0.4-1.1-0.8c-0.3-0.3-0.5-0.7-0.7-1.2
				c-0.1-0.4-0.2-0.9-0.2-1.5v-5.8h1.7v5.6c0,0.4,0,0.8,0.1,1.1c0.1,0.3,0.2,0.5,0.4,0.7c0.2,0.2,0.4,0.3,0.6,0.4
				c0.2,0.1,0.5,0.1,0.8,0.1c0.3,0,0.6,0,0.8-0.1c0.2-0.1,0.4-0.2,0.6-0.4c0.2-0.2,0.3-0.4,0.4-0.7c0.1-0.3,0.1-0.7,0.1-1.1v-5.6
				h1.7v5.8c0,0.5-0.1,1-0.2,1.5c-0.1,0.4-0.4,0.8-0.7,1.2c-0.3,0.3-0.7,0.6-1.1,0.8C125.9,47.8,125.3,47.9,124.7,47.9z"/>
			<path class="st4" d="M136.7,47.7c-0.3-0.5-0.6-1-1-1.6c-0.4-0.6-0.8-1.2-1.2-1.8c-0.4-0.6-0.8-1.2-1.2-1.7
				c-0.4-0.6-0.8-1.1-1.2-1.5v6.6h-1.6v-9.2h1.4c0.4,0.4,0.7,0.8,1.1,1.3c0.4,0.5,0.8,1,1.2,1.6c0.4,0.5,0.8,1.1,1.2,1.7
				c0.4,0.6,0.7,1.1,1,1.5v-6.1h1.7v9.2H136.7z"/>
		</g>
		<g>
			<rect y="42.8" class="st2" width="60.8" height="0.8"/>
		</g>
	</g>
</g>
</svg>
